<?xml version="1.0" encoding="UTF-8"?>
<svg id="Layer_3" data-name="Layer 3" xmlns="http://www.w3.org/2000/svg" viewBox="0 0 257.83 336">
  <defs>
    <style>
      .cls-1 {
        stroke-dasharray: 0 0 7 7;
      }

      .cls-1, .cls-2, .cls-3, .cls-4, .cls-5, .cls-6, .cls-7, .cls-8, .cls-9, .cls-10, .cls-11, .cls-12, .cls-13, .cls-14, .cls-15, .cls-16, .cls-17, .cls-18, .cls-19, .cls-20, .cls-21, .cls-22, .cls-23, .cls-24, .cls-25 {
        fill: none;
        stroke-miterlimit: 10;
      }

      .cls-1, .cls-2, .cls-3, .cls-4, .cls-5, .cls-6, .cls-7, .cls-8, .cls-9, .cls-10, .cls-11, .cls-12, .cls-13, .cls-14, .cls-15, .cls-16, .cls-17, .cls-18, .cls-19, .cls-20, .cls-21, .cls-22, .cls-24, .cls-25 {
        stroke: #fff;
      }

      .cls-1, .cls-2, .cls-3, .cls-4, .cls-5, .cls-6, .cls-7, .cls-11, .cls-14, .cls-15, .cls-16, .cls-17, .cls-19, .cls-20, .cls-21, .cls-22, .cls-25 {
        stroke-width: 1.35px;
      }

      .cls-2 {
        stroke-dasharray: 0 0 6.35 6.35;
      }

      .cls-26 {
        fill: #fff;
      }

      .cls-3 {
        stroke-dasharray: 0 0 4.95 4.95;
      }

      .cls-4 {
        stroke-dasharray: 0 0 6.14 6.14;
      }

      .cls-5 {
        stroke-dasharray: 0 0 4.3 4.3;
      }

      .cls-6 {
        stroke-dasharray: 0 0 6.3 6.3;
      }

      .cls-7 {
        stroke-dasharray: 0 0 6.57 6.57;
      }

      .cls-8 {
        stroke-dasharray: 0 0 6.11 6.11;
      }

      .cls-8, .cls-9, .cls-10, .cls-12, .cls-13, .cls-18, .cls-24 {
        stroke-width: 1.36px;
      }

      .cls-27 {
        fill: #af1e1e;
      }

      .cls-9 {
        stroke-dasharray: 0 0 6.74 6.74;
      }

      .cls-28 {
        fill: #991717;
      }

      .cls-29 {
        fill: #c63030;
      }

      .cls-10 {
        stroke-dasharray: 0 0 6.79 6.79;
      }

      .cls-30 {
        fill: #9e2828;
      }

      .cls-31 {
        fill: #ef2222;
      }

      .cls-11 {
        stroke-dasharray: 0 0 7.24 7.24;
      }

      .cls-12 {
        stroke-dasharray: 0 0 6.3 6.3;
      }

      .cls-13 {
        stroke-dasharray: 0 0 6.41 6.41;
      }

      .cls-32 {
        fill: #f42121;
      }

      .cls-33 {
        fill: #ff4545;
      }

      .cls-14 {
        stroke-dasharray: 0 0 3.46 3.46;
      }

      .cls-15 {
        stroke-dasharray: 0 0 7.15 7.15;
      }

      .cls-34 {
        fill: #ff6161;
      }

      .cls-16 {
        stroke-dasharray: 0 0 6.96 6.96;
      }

      .cls-17 {
        stroke-dasharray: 0 0 3.71 3.71;
      }

      .cls-35 {
        fill: #891212;
      }

      .cls-20 {
        stroke-dasharray: 0 0 3.91 3.91;
      }

      .cls-21 {
        stroke-dasharray: 0 0 7.29 7.29;
      }

      .cls-22 {
        stroke-dasharray: 0 0 2.9 2.9;
      }

      .cls-36 {
        fill: #ce1b1b;
      }

      .cls-23 {
        opacity: 0;
        stroke: #231f20;
        stroke-width: .68px;
      }

      .cls-24 {
        stroke-dasharray: 0 0 6.53 6.53;
      }

      .cls-25 {
        stroke-dasharray: 0 0 6.48 6.48;
      }
    </style>
  </defs>
  <polygon class="cls-28" points="3.44 29.92 4.17 245.88 26.15 263.75 51 184.04 51 2.62 3.44 29.92"/>
  <g>
    <polygon class="cls-32" points="116.82 78.54 130.89 70.34 142.87 78.54 131.58 88.61 116.82 78.54"/>
    <g>
      <polyline class="cls-19" points="118.22 79.49 116.82 78.54 118.28 77.69"/>
      <line class="cls-5" x1="122" y1="75.53" x2="127.57" y2="72.28"/>
      <polyline class="cls-19" points="129.43 71.2 130.89 70.34 132.28 71.3"/>
      <line class="cls-17" x1="135.35" y1="73.39" x2="139.94" y2="76.54"/>
      <polyline class="cls-19" points="141.47 77.59 142.87 78.54 141.61 79.66"/>
      <line class="cls-20" x1="138.69" y1="82.27" x2="134.3" y2="86.18"/>
      <polyline class="cls-19" points="132.84 87.48 131.58 88.61 130.19 87.65"/>
      <line class="cls-22" x1="127.79" y1="86.02" x2="119.42" y2="80.31"/>
    </g>
  </g>
  <rect class="cls-30" x="42.67" y="152.56" width="164.52" height="95.06"/>
  <polygon class="cls-33" points="253.96 31.41 252.66 246.34 228.71 263.99 207.31 185.89 207.84 6.75 253.96 31.41"/>
  <polygon class="cls-32" points="253.96 31.41 229.43 53.95 184.45 26.64 207.79 5.39 253.96 31.41"/>
  <g>
    <polygon class="cls-29" points="130.3 86.92 143.07 77.96 200.18 117.41 191.89 132.43 130.3 86.92"/>
    <g>
      <polyline class="cls-19" points="133.02 88.93 130.3 86.92 133.07 84.98"/>
      <polyline class="cls-19" points="140.3 79.9 143.07 77.96 145.85 79.88"/>
      <line class="cls-16" x1="151.58" y1="83.84" x2="194.53" y2="113.52"/>
      <polyline class="cls-19" points="197.4 115.49 200.18 117.41 198.54 120.37"/>
      <line class="cls-14" x1="196.87" y1="123.41" x2="194.36" y2="127.95"/>
      <polyline class="cls-19" points="193.53 129.47 191.89 132.43 189.18 130.42"/>
      <line class="cls-2" x1="184.07" y1="126.65" x2="135.57" y2="90.81"/>
    </g>
  </g>
  <g>
    <polygon class="cls-34" points="131.3 86.43 117.51 78.18 55.21 118.62 69.88 134.5 131.3 86.43"/>
    <g>
      <polyline class="cls-19" points="128.64 88.51 131.3 86.43 128.4 84.7"/>
      <polyline class="cls-19" points="120.41 79.92 117.51 78.18 114.68 80.02"/>
      <line class="cls-4" x1="109.53" y1="83.36" x2="60.62" y2="115.11"/>
      <polyline class="cls-19" points="58.05 116.78 55.21 118.62 57.51 121.1"/>
      <line class="cls-3" x1="60.87" y1="124.74" x2="65.91" y2="130.2"/>
      <polyline class="cls-19" points="67.59 132.02 69.88 134.5 72.54 132.42"/>
      <line class="cls-25" x1="77.64" y1="128.43" x2="126.09" y2="90.51"/>
    </g>
  </g>
  <g>
    <polygon class="cls-36" points="128.46 241.98 71.83 204.49 32.66 234.94 126.73 302.5 227.79 235.13 184.65 208.09 128.46 241.98"/>
    <g>
      <polyline class="cls-18" points="131.38 240.22 128.46 241.98 125.62 240.1"/>
      <line class="cls-10" x1="119.96" y1="236.35" x2="77.51" y2="208.25"/>
      <polyline class="cls-18" points="74.68 206.38 71.83 204.49 69.14 206.59"/>
      <line class="cls-8" x1="64.31" y1="210.34" x2="37.77" y2="230.97"/>
      <polyline class="cls-18" points="35.36 232.85 32.66 234.94 35.43 236.93"/>
      <line class="cls-13" x1="40.64" y1="240.67" x2="121.35" y2="298.64"/>
      <polyline class="cls-18" points="123.96 300.51 126.73 302.5 129.57 300.61"/>
      <line class="cls-9" x1="135.18" y1="296.87" x2="222.15" y2="238.89"/>
      <polyline class="cls-18" points="224.95 237.02 227.79 235.13 224.9 233.32"/>
      <line class="cls-12" x1="219.56" y1="229.97" x2="190.2" y2="211.57"/>
      <polyline class="cls-18" points="187.54 209.9 184.65 208.09 181.73 209.85"/>
      <line class="cls-24" x1="176.13" y1="213.22" x2="134.18" y2="238.53"/>
    </g>
  </g>
  <polygon class="cls-23" points="235.75 57.25 235.75 242.2 188.48 211.56 188.19 211.37 188.19 29.95 235.75 57.25"/>
  <g>
    <path class="cls-32" d="m63.63,133.31c.29-1.17,67.28-47,67.28-47v86.42s-75.94,45.82-75.94,45.82l8.66-85.24Z"/>
    <g>
      <path class="cls-19" d="m128.13,88.22c1.77-1.22,2.79-1.91,2.79-1.91v3.38"/>
      <line class="cls-11" x1="130.92" y1="96.93" x2="130.91" y2="165.73"/>
      <polyline class="cls-19" points="130.91 169.35 130.91 172.73 128.01 174.48"/>
      <line class="cls-6" x1="122.62" y1="177.73" x2="60.57" y2="215.18"/>
      <polyline class="cls-19" points="57.87 216.81 54.98 218.55 55.32 215.19"/>
      <path class="cls-1" d="m56.02,208.23l7.61-74.91c.24-.96,45.44-32.03,61.61-43.12"/>
    </g>
  </g>
  <g>
    <path class="cls-27" d="m193.98,133.31c-.29-1.17-63.14-47.29-63.14-47.29l-.36,87,59.34,39.22,4.15-78.93Z"/>
    <g>
      <path class="cls-19" d="m133.56,88.02c-1.73-1.27-2.72-2-2.72-2v3.38"/>
      <line class="cls-21" x1="130.8" y1="96.7" x2="130.51" y2="166"/>
      <polyline class="cls-19" points="130.5 169.64 130.48 173.02 133.3 174.89"/>
      <line class="cls-15" x1="139.27" y1="178.83" x2="184.02" y2="208.41"/>
      <polyline class="cls-19" points="187 210.38 189.82 212.24 190 208.87"/>
      <path class="cls-7" d="m190.35,202.31l3.63-68.99c-.24-.96-42.56-32.16-57.77-43.35"/>
    </g>
  </g>
  <polygon class="cls-36" points="128.42 243.81 72.96 206.5 26.43 236.4 127.86 304.5 228.92 237.13 185.4 209.61 128.42 243.81"/>
  <polygon class="cls-33" points="25.7 52.18 26.43 236.4 72.96 206.5 73.26 206.31 73.26 24.88 25.7 52.18"/>
  <polyline class="cls-28" points="185.4 209.61 184.45 26.64 229.43 53.95 228.92 237.13"/>
  <polygon class="cls-32" points="3.1 29.4 25.7 52.18 73.26 24.88 51 2.62 3.1 29.4"/>
  <polygon class="cls-35" points="26.43 236.4 26.43 264.16 127.75 334.11 127.86 304.5 26.43 236.4"/>
  <polygon class="cls-31" points="228.92 237.13 228.71 263.99 127.75 334.11 127.86 304.5 228.92 237.13"/>
  <g>
    <circle class="cls-26" cx="72.51" cy="207.06" r="3.41"/>
    <circle class="cls-26" cx="130.91" cy="172.73" r="3.41"/>
    <circle class="cls-26" cx="72.51" cy="127.87" r="3.41"/>
    <circle class="cls-26" cx="72.51" cy="26.39" r="3.41"/>
    <circle class="cls-26" cx="50.45" cy="3.41" r="3.41"/>
    <circle class="cls-26" cx="184.71" cy="209.12" r="3.41"/>
    <circle class="cls-26" cx="185.05" cy="126.16" r="3.41"/>
    <circle class="cls-26" cx="130.84" cy="86.45" r="3.41"/>
    <circle class="cls-26" cx="130.17" cy="69.46" r="3.41"/>
    <circle class="cls-26" cx="143.14" cy="78.44" r="3.41"/>
    <circle class="cls-26" cx="117.55" cy="78.14" r="3.41"/>
    <circle class="cls-26" cx="128.64" cy="241.27" r="3.41"/>
    <circle class="cls-26" cx="227.92" cy="236.72" r="3.41"/>
    <circle class="cls-26" cx="227.92" cy="264.1" r="3.41"/>
    <circle class="cls-26" cx="252.77" cy="246.39" r="3.41"/>
    <circle class="cls-26" cx="185.05" cy="28.05" r="3.41"/>
    <circle class="cls-26" cx="207.14" cy="5.44" r="3.41"/>
    <circle class="cls-26" cx="254.42" cy="31.5" r="3.41"/>
    <circle class="cls-26" cx="228.42" cy="55.74" r="3.41"/>
    <circle class="cls-26" cx="128.24" cy="303.37" r="3.41"/>
    <circle class="cls-26" cx="128.24" cy="332.59" r="3.41"/>
    <circle class="cls-26" cx="27.11" cy="236.32" r="3.41"/>
    <circle class="cls-26" cx="25.27" cy="264.39" r="3.41"/>
    <circle class="cls-26" cx="3.41" cy="244.14" r="3.41"/>
    <circle class="cls-26" cx="27.11" cy="53.09" r="3.41"/>
    <circle class="cls-26" cx="4.21" cy="29.97" r="3.41"/>
  </g>
</svg>